<svg xmlns="http://www.w3.org/2000/svg" viewBox="0 0 64 64" role="img" aria-label="BemaHub mark">
  <defs>
    <linearGradient id="outer" x1="8" y1="8" x2="56" y2="56" gradientUnits="userSpaceOnUse">
      <stop stop-color="#11d6e4"/>
      <stop offset=".46" stop-color="#0875ef"/>
      <stop offset="1" stop-color="#7138ef"/>
    </linearGradient>
    <linearGradient id="left" x1="10" y1="13" x2="32" y2="51" gradientUnits="userSpaceOnUse">
      <stop stop-color="#0fd1dd"/>
      <stop offset="1" stop-color="#0758e8"/>
    </linearGradient>
    <linearGradient id="right" x1="54" y1="13" x2="32" y2="51" gradientUnits="userSpaceOnUse">
      <stop stop-color="#8c35ed"/>
      <stop offset="1" stop-color="#175fe9"/>
    </linearGradient>
  </defs>
  <path d="M32 3 57 17.5v29L32 61 7 46.5v-29L32 3Z" fill="url(#outer)"/>
  <path d="m32 10-18.8 11v22L32 54V43L22.7 37.5v-11L32 21V10Z" fill="url(#left)"/>
  <path d="m32 10 18.8 11v22L32 54V43l9.3-5.5v-11L32 21V10Z" fill="url(#right)"/>
  <path d="m32 21 9.3 5.5v11L32 43l-9.3-5.5v-11L32 21Z" fill="#fff"/>
</svg>
